<?xml version="1.0" encoding="UTF-8"?>
<svg id="Layer_1" xmlns="http://www.w3.org/2000/svg" viewBox="0 0 1188 170">
  <defs>
    <style>
      .cls-1 {
        fill: #f14e13;
      }

      .cls-2 {
        fill: #f5ece5;
      }
    </style>
  </defs>
  <path class="cls-2" d="M130.28,48.15c-.53.53-1.25.79-2.17.79h-56.93c-.66,0-1.12.39-1.38,1.18l-2.17,18.12c-.13.79.2,1.18.98,1.18h35.26c.79,0,1.41.27,1.87.79.46.53.62,1.25.49,2.17l-3.15,25.61c-.13.92-.46,1.64-.98,2.17s-1.25.79-2.17.79h-35.26c-.79,0-1.18.39-1.18,1.18l-2.56,20.09c0,.79.33,1.18.98,1.18h56.93c.92,0,1.61.26,2.07.79.46.53.62,1.25.49,2.17l-3.15,25.8c-.13.92-.49,1.64-1.08,2.17-.59.53-1.28.79-2.07.79H23.91c-.92,0-1.61-.26-2.07-.79-.46-.52-.63-1.25-.49-2.17L37.7,20.18c.13-.92.46-1.64.98-2.17s1.25-.79,2.17-.79h91.2c.79,0,1.41.27,1.87.79.46.53.62,1.25.49,2.17l-3.15,25.8c-.13.92-.46,1.64-.98,2.17Z"/>
  <path class="cls-2" d="M130.77,154.32c-.46-.52-.62-1.25-.49-2.17l16.35-131.97c.13-.92.46-1.64.98-2.17.52-.52,1.25-.79,2.17-.79h30.14c.92,0,1.6.27,2.07.79.46.53.62,1.25.49,2.17l-12.61,102.03c0,.79.33,1.18.98,1.18h58.89c.92,0,1.61.26,2.07.79.46.53.62,1.25.49,2.17l-3.15,25.8c-.13.92-.49,1.64-1.08,2.17-.59.53-1.35.79-2.27.79h-92.97c-.92,0-1.61-.26-2.07-.79Z"/>
  <path class="cls-2" d="M348.91,48.15c-.53.53-1.25.79-2.17.79h-56.93c-.66,0-1.12.39-1.38,1.18l-2.17,18.12c-.13.79.2,1.18.98,1.18h35.26c.79,0,1.41.27,1.87.79.46.53.62,1.25.49,2.17l-3.15,25.61c-.13.92-.46,1.64-.98,2.17-.53.53-1.25.79-2.17.79h-35.26c-.79,0-1.18.39-1.18,1.18l-2.56,20.09c0,.79.33,1.18.98,1.18h56.92c.92,0,1.61.26,2.07.79.46.53.62,1.25.49,2.17l-3.15,25.8c-.13.92-.49,1.64-1.08,2.17-.59.53-1.28.79-2.07.79h-91.2c-.92,0-1.61-.26-2.07-.79-.46-.52-.62-1.25-.49-2.17l16.35-131.97c.13-.92.46-1.64.98-2.17.52-.52,1.25-.79,2.17-.79h91.2c.79,0,1.41.27,1.87.79.46.53.62,1.25.49,2.17l-3.15,25.8c-.13.92-.46,1.64-.98,2.17Z"/>
  <path class="cls-2" d="M349.4,154.32c-.46-.52-.63-1.25-.49-2.17l16.35-131.97c.13-.92.46-1.64.98-2.17.52-.52,1.25-.79,2.17-.79h30.14c.92,0,1.61.27,2.07.79.46.53.62,1.25.49,2.17l-5.71,46.68c-.13.53-.03.89.29,1.08.33.2.62.03.89-.49l39-48.45c1.05-1.18,2.36-1.77,3.94-1.77h34.08c1.44,0,2.17.53,2.17,1.58,0,.66-.26,1.31-.79,1.97l-46.49,56.73c-.53.53-.59,1.05-.2,1.58l31.91,72.49c.26.79.39,1.31.39,1.58,0,1.31-.92,1.97-2.76,1.97h-33.68c-1.71,0-2.83-.66-3.35-1.97l-20.09-48.26c-.13-.39-.36-.59-.69-.59s-.63.2-.89.59l-9.65,12.41c-.27.53-.4.98-.4,1.38l-4.14,33.49c-.13.92-.49,1.64-1.08,2.17-.59.53-1.35.79-2.26.79h-30.14c-.92,0-1.61-.26-2.07-.79Z"/>
  <path class="cls-2" d="M588.92,18.01c.46.53.62,1.25.49,2.17l-3.15,26c-.13.92-.46,1.64-.98,2.17s-1.25.79-2.17.79h-31.91c-.66,0-1.12.39-1.38,1.18l-12.41,101.84c-.13.92-.49,1.64-1.08,2.17-.59.53-1.35.79-2.27.79h-30.14c-.92,0-1.61-.26-2.07-.79-.46-.52-.63-1.25-.49-2.17l12.61-101.84c0-.79-.33-1.18-.98-1.18h-30.93c-.92,0-1.61-.26-2.07-.79-.46-.52-.63-1.25-.49-2.17l3.15-26c.13-.92.49-1.64,1.08-2.17.59-.52,1.35-.79,2.27-.79h101.05c.79,0,1.41.27,1.87.79Z"/>
  <path class="cls-2" d="M651.07,152.94l-14.77-49.84c-.26-.65-.72-.98-1.38-.98h-7.48c-.66,0-1.12.39-1.38,1.18l-5.91,48.85c-.13.92-.49,1.64-1.08,2.17-.59.53-1.35.79-2.26.79h-30.14c-.92,0-1.61-.26-2.07-.79-.46-.52-.63-1.25-.49-2.17l16.35-131.97c.13-.92.46-1.64.98-2.17.52-.52,1.25-.79,2.17-.79h57.91c11.82,0,21.21,3.35,28.17,10.04,6.96,6.7,10.44,15.76,10.44,27.18,0,1.31-.13,3.55-.39,6.7-1.05,8.67-4.04,16.25-8.96,22.75-4.92,6.5-11.2,11.26-18.81,14.28-.4.13-.66.36-.79.69-.13.33-.13.63,0,.89l17.73,51.8c.13.26.2.66.2,1.18,0,.66-.27,1.22-.79,1.68-.53.46-1.25.69-2.17.69h-32.11c-1.58,0-2.56-.72-2.95-2.17ZM632.55,50.12l-2.76,22.65c0,.79.33,1.18.98,1.18h17.73c4.46,0,8.18-1.31,11.13-3.94,2.95-2.63,4.43-6.04,4.43-10.24,0-3.28-1.15-5.91-3.45-7.88-2.3-1.97-5.29-2.95-8.96-2.95h-17.73c-.66,0-1.12.39-1.38,1.18Z"/>
  <path class="cls-2" d="M727.59,151.95c-7.16-3.68-12.67-8.86-16.55-15.56-3.87-6.7-5.81-14.58-5.81-23.64,0-2.63.2-5.32.59-8.08l4.53-37.03c1.31-10.24,4.66-19.3,10.04-27.18,5.38-7.88,12.38-13.98,20.98-18.32,8.6-4.33,18.22-6.5,28.86-6.5,9.72,0,18.19,1.81,25.41,5.42,7.22,3.61,12.77,8.73,16.64,15.36,3.87,6.63,5.81,14.41,5.81,23.34,0,2.5-.2,5.12-.59,7.88l-4.53,37.03c-1.18,10.51-4.5,19.73-9.95,27.67-5.45,7.95-12.51,14.12-21.17,18.51-8.67,4.4-18.32,6.6-28.96,6.6-9.72,0-18.15-1.84-25.31-5.51ZM770.43,120.34c3.67-3.61,5.84-8.43,6.5-14.48l4.73-38.61c.13-.79.2-1.97.2-3.55,0-4.99-1.38-8.96-4.14-11.92-2.76-2.95-6.57-4.43-11.42-4.43-5.25,0-9.72,1.81-13.39,5.42-3.68,3.61-5.84,8.44-6.5,14.48l-4.73,38.61c-.13.79-.2,1.97-.2,3.55,0,4.99,1.38,8.96,4.14,11.92,2.76,2.95,6.5,4.43,11.23,4.43,5.38,0,9.91-1.8,13.59-5.42Z"/>
  <path class="cls-1" d="M1001.87,152.94l-14.77-49.84c-.27-.65-.72-.98-1.38-.98h-7.48c-.66,0-1.12.39-1.38,1.18l-5.91,48.85c-.13.92-.49,1.64-1.08,2.17-.59.53-1.35.79-2.27.79h-30.14c-.92,0-1.61-.26-2.07-.79-.46-.52-.63-1.25-.49-2.17l16.35-131.97c.13-.92.46-1.64.98-2.17s1.25-.79,2.17-.79h57.91c11.82,0,21.21,3.35,28.17,10.04,6.96,6.7,10.44,15.76,10.44,27.18,0,1.31-.13,3.55-.39,6.7-1.05,8.67-4.04,16.25-8.96,22.75-4.92,6.5-11.2,11.26-18.81,14.28-.39.13-.66.36-.79.69-.13.33-.13.63,0,.89l17.73,51.8c.13.26.2.66.2,1.18,0,.66-.26,1.22-.79,1.68-.53.46-1.25.69-2.17.69h-32.1c-1.58,0-2.56-.72-2.95-2.17ZM983.35,50.12l-2.76,22.65c0,.79.33,1.18.98,1.18h17.73c4.46,0,8.18-1.31,11.13-3.94,2.95-2.63,4.43-6.04,4.43-10.24,0-3.28-1.15-5.91-3.45-7.88-2.3-1.97-5.29-2.95-8.96-2.95h-17.73c-.66,0-1.12.39-1.38,1.18Z"/>
  <path class="cls-1" d="M1163.08,36.43c-3.87-6.63-9.42-11.75-16.64-15.36-7.22-3.61-15.69-5.42-25.41-5.42-10.64,0-20.26,2.17-28.86,6.5-8.6,4.33-15.59,10.44-20.98,18.32-5.39,7.88-8.73,16.94-10.05,27.18l-4.53,37.03c-.4,2.76-.59,5.45-.59,8.08,0,9.06,1.94,16.94,5.81,23.64,3.87,6.7,9.39,11.89,16.54,15.56,7.16,3.67,15.59,5.51,25.31,5.51,10.64,0,20.29-2.2,28.96-6.6,8.67-4.4,15.72-10.57,21.17-18.51,5.45-7.94,8.76-17.17,9.95-27.67l4.53-37.03c.39-2.76.59-5.38.59-7.88,0-8.93-1.94-16.71-5.81-23.34ZM1139.33,79.97c-10.77,17.09-21.52,34.19-32.3,51.26-.44.7-1.23,1.18-1.86,1.77h-1.46c-2-1.2-2.29-1.93-1.7-4.28,2.61-10.36,5.22-20.72,7.82-31.07.02-.09.03-.18.06-.4h-1.06c-6.84,0-13.68,0-20.52,0-1.55,0-2.6-.75-2.95-2.07-.25-.93.08-1.72.56-2.49,4.88-7.73,9.74-15.47,14.61-23.21,5.92-9.41,11.84-18.82,17.76-28.22.83-1.31,1.9-1.86,3.09-1.6,1.58.34,2.48,1.82,2.07,3.48-1.19,4.8-2.41,9.6-3.61,14.39-1.45,5.77-2.9,11.54-4.35,17.3-.04.14-.06.29-.1.52h1.03c6.78,0,13.56.01,20.33,0,1.21,0,2.23.29,2.87,1.39.66,1.14.37,2.19-.3,3.24Z"/>
  <path class="cls-1" d="M850.51,154.51h-28.93c-.88,0-1.55-.26-1.99-.79-.44-.52-.6-1.24-.47-2.16l15.69-131.47c.12-.91.44-1.63.95-2.16.5-.52,1.2-.79,2.08-.79h53.7c11.98,0,21.43,3.43,28.36,10.3,6.93,6.87,10.4,16.19,10.4,27.96,0,3.01-.13,5.3-.38,6.87-1.01,8.77-3.81,16.48-8.41,23.15-4.6,6.67-10.53,11.84-17.77,15.5-7.25,3.66-15.35,5.49-24.3,5.49h-19.29c-.63,0-1.07.39-1.32,1.18M890.88,72.58c3.21-2.94,4.82-6.77,4.82-11.48,0-3.79-1.23-6.8-3.69-9.03-2.46-2.22-5.77-3.34-9.93-3.34h-15.13c-.63,0-1.07.39-1.32,1.18l-3.02,25.9c0,.78.31,1.18.95,1.18h15.32c4.79,0,8.79-1.47,12.01-4.42Z"/>
  <path class="cls-1" d="M1001.97,152.6l-14.77-49.84c-.27-.65-.72-.98-1.38-.98h-7.48c-.66,0-1.12.39-1.38,1.18l-5.91,48.85c-.13.92-.49,1.64-1.08,2.17-.59.53-1.35.79-2.27.79h-30.14c-.92,0-1.61-.26-2.07-.79-.46-.52-.63-1.25-.49-2.17l16.35-131.97c.13-.92.46-1.64.98-2.17s1.25-.79,2.17-.79h57.91c11.82,0,21.21,3.35,28.17,10.04,6.96,6.7,10.44,15.76,10.44,27.18,0,1.31-.13,3.55-.39,6.7-1.05,8.67-4.04,16.25-8.96,22.75-4.92,6.5-11.2,11.26-18.81,14.28-.39.13-.66.36-.79.69-.13.33-.13.63,0,.89l17.73,51.8c.13.26.2.66.2,1.18,0,.66-.26,1.22-.79,1.68-.53.46-1.25.69-2.17.69h-32.1c-1.58,0-2.56-.72-2.95-2.17ZM983.45,49.78l-2.76,22.65c0,.79.33,1.18.98,1.18h17.73c4.46,0,8.18-1.31,11.13-3.94,2.95-2.63,4.43-6.04,4.43-10.24,0-3.28-1.15-5.91-3.45-7.88-2.3-1.97-5.29-2.95-8.96-2.95h-17.73c-.66,0-1.12.39-1.38,1.18Z"/>
</svg>