<?xml version="1.0" encoding="UTF-8"?>
<svg id="Layer_1" xmlns="http://www.w3.org/2000/svg" viewBox="0 0 1000 708">
  <defs>
    <style>
      .cls-1 {
        fill: #f14e13;
      }

      .cls-2 {
        fill: #1a0e1c;
      }
    </style>
  </defs>
  <g>
    <path class="cls-2" d="M194.9,507.55l10.92-85.65c0-3.36,1.68-5.04,5.04-5.04h73.76c-.96-2.29-1.78-4.68-2.44-7.16-4.04-15.09-1.31-30.33,8.12-45.27,17.21-27.3,34.4-54.6,51.61-81.92h-114.26c-3.36,0-4.76-1.68-4.2-5.04l9.24-77.25c1.12-3.36,3.07-5.04,5.88-5.04h158.3l14.02-22.29c23.69-37.63,47.37-75.27,71.06-112.9H109.25c-3.92,0-7.01,1.13-9.24,3.36-2.24,2.24-3.65,5.33-4.2,9.24L26.12,635.18c-.56,3.92.13,7.01,2.1,9.24,1.96,2.24,4.89,3.36,8.82,3.36h355.06c-2.04-10.92-.22-21.21,2.04-30.16,8.82-35,17.63-70.02,26.45-105.04h-221.49c-2.81,0-4.2-1.68-4.2-5.04Z"/>
    <path class="cls-2" d="M928.31,104.07c-30.79-29.39-72.78-44.08-125.96-44.08h-194.24c-5.79,23.4-11.78,47.11-17.56,70.06-2.15,8.53-4.29,17.05-6.43,25.56,0,0-16.42,65.31-18.95,75.33h30.64c27.06,0,47.79-.02,67.22-.08h.25c7.63,0,14.24,1.1,19.96,2.92l4.07-33.55c1.12-3.36,3.07-5.04,5.88-5.04h67.18c18.47,0,33.17,4.76,44.08,14.28,10.92,9.52,16.37,22.4,16.37,38.63,0,20.15-7.14,36.53-21.41,49.12-14.28,12.6-32.05,18.89-53.32,18.89h-34.51c-.22.37-.46.74-.68,1.12-23.2,36.83-46.4,73.67-69.59,110.49-45.43,72.15-92.32,146.61-138.72,220.08h117.55c3.91,0,7.14-1.12,9.66-3.36,2.52-2.23,4.05-5.31,4.62-9.24l22.67-188.09c1.12-3.36,3.07-5.04,5.88-5.04h85.65c39.74,0,75.71-7.83,107.9-23.51,32.18-15.67,58.49-37.79,78.93-66.34,20.43-28.55,32.88-61.57,37.37-99.09,1.12-6.72,1.68-16.51,1.68-29.39,0-50.38-15.4-90.27-46.18-119.66Z"/>
  </g>
  <path class="cls-1" d="M440.48,655.23c-13.48-8.08-15.42-13.03-11.45-28.81,17.58-69.77,35.14-139.54,52.7-209.32.15-.58.18-1.19.39-2.73h-7.11c-46.07,0-92.14.02-138.21-.01-10.41,0-17.49-5.05-19.87-13.96-1.67-6.25.51-11.57,3.8-16.79,32.84-52.09,65.63-104.22,98.43-156.33,39.88-63.37,79.76-126.74,119.66-190.1,5.57-8.84,12.78-12.51,20.8-10.76,10.63,2.32,16.7,12.24,13.91,23.46-8.02,32.34-16.2,64.64-24.33,96.95-9.77,38.85-19.55,77.71-29.31,116.56-.24.97-.39,1.95-.69,3.52,2.54,0,4.74,0,6.94,0,45.66,0,91.32.07,136.98-.07,8.16-.02,15.04,1.93,19.33,9.33,4.46,7.68,2.46,14.75-2.01,21.85-72.53,115.1-144.94,230.28-217.61,345.29-2.99,4.73-8.3,7.98-12.53,11.92-3.28,0-6.55,0-9.83,0Z"/>
</svg>